<svg width="44" height="44" viewBox="0 0 44 44" fill="none" xmlns="http://www.w3.org/2000/svg">
<path d="M15 27.3333C15 29.9107 17.0893 32 19.6667 32H24C26.7614 32 29 29.7614 29 27C29 24.2386 26.7614 22 24 22H20C17.2386 22 15 19.7614 15 17C15 14.2386 17.2386 12 20 12H24.3333C26.9107 12 29 14.0893 29 16.6667M22 9V12M22 32V35M42 22C42 33.0457 33.0457 42 22 42C10.9543 42 2 33.0457 2 22C2 10.9543 10.9543 2 22 2C33.0457 2 42 10.9543 42 22Z" stroke="#0E333C" stroke-width="4" stroke-linecap="round" stroke-linejoin="round"/>
</svg>
