<svg width="288" height="40" viewBox="0 0 288 40" fill="none" xmlns="http://www.w3.org/2000/svg">
<path d="M64.2014 33.3973L56.8937 13.329C56.5444 12.3159 55.8488 11.6045 54.8072 11.1948L54.0005 10.909V10.4358H65.6242V10.909L64.9128 11.0995C63.6805 11.4806 63.2677 12.2397 63.6805 13.3766L68.0918 26.8042L72.0299 16.3651L71.1279 13.6593C70.9056 12.9638 70.677 12.4334 70.4388 12.0713C70.2006 11.7093 69.8925 11.4457 69.5146 11.2901L68.7079 10.909V10.4358H78.5309V10.909L77.8671 11.1948C77.3939 11.3854 77.1081 11.6394 77.0128 11.9538C76.9175 12.2714 76.981 12.7446 77.2034 13.3766L81.567 26.566L86.0735 13.4719C86.515 12.2714 86.28 11.5124 85.3621 11.1948L84.3173 10.909V10.4358H90.0116V10.909L88.8715 11.2425C88.3348 11.4012 87.9473 11.6458 87.7091 11.9793C87.4709 12.3127 87.2581 12.7605 87.0676 13.3322L80.2363 33.4005H77.8163L72.5507 17.8864L66.9517 33.4005H64.2014V33.3973Z" fill="#0E333C"/>
<path d="M90.7705 33.2576V32.7844L91.4343 32.5938C92.0662 32.4033 92.5013 32.1206 92.7395 31.7395C92.9777 31.3584 93.0952 30.8535 93.0952 30.2215V15.3711C93.0952 14.7074 92.9777 14.2088 92.7395 13.8753C92.5013 13.5418 92.0662 13.3132 91.4343 13.1862L90.7705 13.0432V12.57L99.4533 9.7721L99.9265 10.2453L99.7836 16.9813V30.266C99.7836 30.898 99.9011 31.4061 100.139 31.784C100.377 32.1651 100.797 32.4478 101.397 32.6383L101.87 32.7812V33.2544H90.7705V33.2576ZM96.3696 7.25682C95.2929 7.25682 94.3846 6.917 93.6415 6.23737C92.8983 5.55773 92.5268 4.69389 92.5268 3.65221C92.5268 2.57877 92.8983 1.70541 93.6415 1.04165C94.3846 0.377894 95.2929 0.0444336 96.3696 0.0444336C97.443 0.0444336 98.3449 0.377894 99.0754 1.04165C99.8027 1.70541 100.168 2.57559 100.168 3.65221C100.168 4.69707 99.8027 5.55773 99.0754 6.23737C98.3449 6.917 97.443 7.25682 96.3696 7.25682Z" fill="#0E333C"/>
<path d="M111.261 33.9689C109.711 33.9689 108.32 33.7879 107.085 33.4227C105.853 33.0606 104.712 32.6096 103.668 32.0697L103.715 26.423H104.188L105.802 29.2686C106.497 30.5326 107.266 31.4759 108.104 32.092C108.943 32.7081 110.01 33.0161 111.306 33.0161C112.824 33.0161 114.05 32.6763 114.983 31.9967C115.917 31.3171 116.384 30.4088 116.384 29.2686C116.384 28.2238 116.05 27.3695 115.387 26.7057C114.723 26.042 113.487 25.4417 111.687 24.9018L109.695 24.2857C107.764 23.7172 106.246 22.8312 105.141 21.6275C104.033 20.427 103.48 18.9566 103.48 17.2162C103.48 15.1297 104.303 13.3576 105.948 11.903C107.593 10.4485 109.949 9.72119 113.017 9.72119C114.25 9.72119 115.412 9.85457 116.504 10.1245C117.597 10.3945 118.648 10.7978 119.658 11.3345L119.372 16.4572H118.899L117.238 13.5164C116.638 12.4715 116.044 11.7379 115.46 11.3091C114.875 10.8804 113.996 10.6676 112.827 10.6676C111.75 10.6676 110.74 10.9693 109.791 11.5695C108.841 12.1698 108.368 13.0241 108.368 14.1325C108.368 15.2091 108.771 16.0634 109.578 16.6954C110.385 17.3274 111.579 17.9149 113.16 18.4516L115.294 19.0678C117.572 19.7633 119.201 20.7224 120.182 21.9387C121.163 23.1583 121.653 24.6192 121.653 26.3278C121.653 28.6366 120.744 30.4882 118.924 31.8792C117.105 33.2734 114.551 33.9689 111.261 33.9689Z" fill="#0E333C"/>
<path d="M134.874 9.72437C136.929 9.72437 138.685 10.1436 140.139 10.982C141.594 11.8204 142.709 12.9606 143.483 14.3992C144.258 15.8379 144.646 17.4767 144.646 19.3091C144.646 19.6585 144.63 20.0142 144.598 20.3762C144.566 20.7414 144.503 21.0654 144.408 21.348H130.269C130.3 24.7653 130.91 27.2234 132.095 28.7256C133.283 30.2277 135.045 30.9804 137.386 30.9804C138.967 30.9804 140.247 30.7264 141.229 30.2214C142.21 29.7164 143.128 28.9733 143.982 27.9919L144.455 28.4207C143.474 30.1611 142.169 31.5203 140.543 32.5017C138.913 33.483 136.96 33.9721 134.683 33.9721C132.438 33.9721 130.443 33.4894 128.706 32.5239C126.966 31.5584 125.607 30.1769 124.625 28.373C123.644 26.5691 123.155 24.4191 123.155 21.9197C123.155 19.325 123.723 17.121 124.863 15.3012C126.004 13.4814 127.464 12.0999 129.252 11.1503C131.037 10.1976 132.914 9.72437 134.874 9.72437ZM134.731 10.674C133.813 10.674 133.029 10.9503 132.381 11.5029C131.733 12.0555 131.225 13.0368 130.863 14.4437C130.497 15.8506 130.3 17.8355 130.269 20.3984H138.383C138.697 16.9526 138.574 14.4691 138.002 12.951C137.437 11.433 136.344 10.674 134.731 10.674Z" fill="#0E333C"/>
<path d="M153.631 33.8738L145.612 33.2576V32.7844L146.085 32.6892C147.317 32.4033 147.936 31.6157 147.936 30.3168V4.93212C147.936 4.26836 147.835 3.7634 147.628 3.41405C147.422 3.06788 147.003 2.8297 146.371 2.70266L145.707 2.51211V2.03891L154.151 0L154.72 0.425565L154.529 7.11393V11.9063C155.574 11.179 156.711 10.6328 157.947 10.2707C159.179 9.90869 160.43 9.72449 161.694 9.72449C163.498 9.72449 165.092 10.1437 166.487 10.9821C167.878 11.8206 168.976 13.1163 169.783 14.8726C170.59 16.6288 170.993 18.8805 170.993 21.634C170.993 24.3875 170.542 26.6709 169.64 28.4907C168.738 30.3104 167.538 31.6761 166.036 32.5939C164.533 33.5117 162.882 33.969 161.078 33.969C159.906 33.969 158.728 33.8102 157.543 33.4958C156.359 33.1814 155.304 32.7368 154.39 32.1683L153.631 33.8738ZM158.706 32.3557C159.719 32.3557 160.605 32.0413 161.364 31.4061C162.123 30.7741 162.723 29.6912 163.168 28.1572C163.609 26.6233 163.832 24.5113 163.832 21.8245C163.832 19.1378 163.625 17.0639 163.215 15.6094C162.806 14.1548 162.228 13.1417 161.485 12.5732C160.741 12.0048 159.849 11.7189 158.804 11.7189C157.318 11.7189 155.939 12.1318 154.675 12.9512V31.1711C155.276 31.5522 155.892 31.8444 156.527 32.0476C157.156 32.2541 157.883 32.3557 158.706 32.3557Z" fill="#0E333C"/>
<path d="M171.923 33.2575V32.7843L172.635 32.5937C173.267 32.4032 173.702 32.1205 173.94 31.7394C174.178 31.3583 174.296 30.8693 174.296 30.269V15.4187C174.296 14.7232 174.178 14.2087 173.94 13.8752C173.702 13.5417 173.267 13.3131 172.635 13.186L171.923 12.9955V12.5223L180.085 9.772L180.559 10.2452L180.987 14.3262V14.7073C181.429 13.8212 182.007 13.0082 182.718 12.2651C183.429 11.5219 184.22 10.9121 185.09 10.4389C185.961 9.96573 186.821 9.72754 187.676 9.72754C188.876 9.72754 189.794 10.061 190.429 10.7248C191.061 11.3885 191.379 12.2269 191.379 13.24C191.379 14.3167 191.071 15.1456 190.454 15.7299C189.838 16.3143 189.102 16.6065 188.247 16.6065C186.92 16.6065 185.748 15.9427 184.735 14.6152L184.64 14.5199C184.322 14.0785 183.96 13.8308 183.547 13.7831C183.134 13.7355 182.756 13.9324 182.407 14.377C182.089 14.6628 181.829 15.0027 181.622 15.3965C181.416 15.7934 181.219 16.2444 181.029 16.7494V29.9864C181.029 31.2504 181.581 32.0443 182.69 32.3587L184.208 32.7875V33.2607H171.923V33.2575Z" fill="#0E333C"/>
<path d="M198.683 33.9689C196.848 33.9689 195.307 33.4481 194.056 32.4032C192.805 31.3583 192.182 29.8562 192.182 27.8967C192.182 26.4103 192.941 25.0416 194.459 23.7934C195.978 22.5453 198.366 21.6021 201.624 20.9701C202.129 20.8748 202.698 20.7732 203.333 20.662C203.965 20.5509 204.629 20.4334 205.324 20.3063V16.5588C205.324 14.4088 205.064 12.8971 204.543 12.0269C204.022 11.1567 203.206 10.7216 202.101 10.7216C201.342 10.7216 200.741 10.9661 200.297 11.4584C199.852 11.9506 199.569 12.7954 199.442 13.9959L199.347 14.5167C199.284 15.876 198.95 16.8732 198.35 17.5052C197.75 18.1372 197.007 18.4548 196.12 18.4548C195.298 18.4548 194.618 18.2007 194.082 17.6958C193.545 17.1908 193.275 16.508 193.275 15.6569C193.275 14.3611 193.726 13.2686 194.628 12.3826C195.53 11.4965 196.724 10.8327 198.21 10.3913C199.696 9.94985 201.31 9.72754 203.05 9.72754C205.864 9.72754 208.039 10.4167 209.573 11.7918C211.107 13.167 211.876 15.406 211.876 18.5056V28.9923C211.876 30.4151 212.54 31.1265 213.867 31.1265H214.912L215.338 31.5076C214.737 32.2666 214.08 32.851 213.369 33.2639C212.657 33.6736 211.654 33.88 210.355 33.88C208.964 33.88 207.865 33.5561 207.058 32.9082C206.251 32.2603 205.721 31.3965 205.47 30.323C204.521 31.3361 203.549 32.1968 202.552 32.9082C201.554 33.6132 200.265 33.9689 198.683 33.9689ZM201.577 31.0757C202.209 31.0757 202.802 30.9264 203.355 30.6247C203.908 30.323 204.565 29.8593 205.324 29.2242V21.2528C205.007 21.3163 204.692 21.3798 204.375 21.4433C204.057 21.5068 203.695 21.5703 203.282 21.6339C201.827 22.015 200.665 22.6533 199.795 23.5553C198.925 24.4572 198.49 25.6672 198.49 27.1853C198.49 28.481 198.791 29.456 199.392 30.1039C199.995 30.7486 200.722 31.0757 201.577 31.0757Z" fill="#0E333C"/>
<path d="M216.236 33.2575V32.7843L216.9 32.5937C218.005 32.2793 218.561 31.5013 218.561 30.269V15.4187C218.561 14.7232 218.45 14.2087 218.228 13.8752C218.005 13.5417 217.58 13.3131 216.948 13.1861L216.236 12.9955V12.5223L224.351 9.772L224.824 10.2452L225.205 13.0908C226.31 12.1094 227.561 11.3028 228.952 10.6708C230.344 10.0388 231.719 9.72119 233.081 9.72119C235.168 9.72119 236.775 10.2897 237.896 11.4298C239.017 12.5699 239.579 14.3071 239.579 16.6477V30.3103C239.579 31.5425 240.179 32.3206 241.383 32.635L241.808 32.778V33.2512H230.61V32.778L231.226 32.5874C232.332 32.2412 232.887 31.4663 232.887 30.2627V15.1265C232.887 13.1035 231.874 12.0904 229.851 12.0904C228.46 12.0904 226.939 12.7859 225.297 14.1769V30.3071C225.297 31.5394 225.85 32.3175 226.958 32.6319L227.387 32.7748V33.248H216.236V33.2575Z" fill="#0E333C"/>
<path d="M252.422 33.969C250.554 33.969 248.878 33.5498 247.391 32.7114C245.905 31.873 244.727 30.5772 243.857 28.821C242.986 27.0647 242.551 24.813 242.551 22.0595C242.551 19.2775 243.04 16.975 244.022 15.1552C245.003 13.3355 246.299 11.9762 247.912 11.0742C249.525 10.1723 251.282 9.72132 253.178 9.72132C254.286 9.72132 255.344 9.83247 256.357 10.0548C257.37 10.2771 258.269 10.6074 259.063 11.052V4.88448C259.063 4.22072 258.958 3.73164 258.755 3.41405C258.548 3.09964 258.113 2.87733 257.449 2.7503L256.547 2.55975V2.08654L265.182 0L265.703 0.425565L265.513 7.06948V30.2692C265.513 30.9012 265.624 31.4156 265.846 31.8126C266.069 32.2096 266.478 32.4859 267.078 32.6415L267.504 32.7844V33.2576L259.39 33.7785L258.964 32.0699C258.11 32.6384 257.138 33.0989 256.046 33.445C254.963 33.7944 253.753 33.969 252.422 33.969ZM255.175 32.2128C256.503 32.2128 257.722 31.819 258.828 31.025V12.189C257.656 11.4299 256.455 11.0488 255.223 11.0488C253.705 11.0488 252.406 11.9254 251.333 13.6816C250.256 15.4379 249.719 18.1977 249.719 21.9611C249.719 25.7245 250.224 28.3732 251.237 29.9071C252.247 31.4474 253.562 32.2128 255.175 32.2128Z" fill="#0E333C"/>
<path d="M276.898 33.9689C275.348 33.9689 273.957 33.7879 272.722 33.4227C271.49 33.0606 270.35 32.6096 269.305 32.0697L269.352 26.423H269.826L271.439 29.2686C272.134 30.5326 272.903 31.4759 273.741 32.092C274.58 32.7081 275.647 33.0161 276.943 33.0161C278.461 33.0161 279.687 32.6763 280.62 31.9967C281.554 31.3171 282.021 30.4088 282.021 29.2686C282.021 28.2238 281.687 27.3695 281.024 26.7057C280.36 26.042 279.125 25.4417 277.324 24.9018L275.333 24.2857C273.402 23.7172 271.884 22.8312 270.778 21.6275C269.67 20.427 269.117 18.9566 269.117 17.2162C269.117 15.1297 269.94 13.3576 271.585 11.903C273.23 10.4485 275.587 9.72119 278.655 9.72119C279.887 9.72119 281.052 9.85457 282.142 10.1245C283.234 10.3945 284.285 10.7978 285.295 11.3345L285.009 16.4572H284.536L282.875 13.5164C282.275 12.4715 281.681 11.7379 281.097 11.3091C280.512 10.8804 279.633 10.6676 278.464 10.6676C277.387 10.6676 276.377 10.9693 275.428 11.5695C274.478 12.1698 274.005 13.0241 274.005 14.1325C274.005 15.2091 274.408 16.0634 275.215 16.6954C276.022 17.3274 277.216 17.9149 278.797 18.4516L280.932 19.0678C283.209 19.7633 284.838 20.7224 285.819 21.9387C286.801 23.1583 287.29 24.6192 287.29 26.3278C287.29 28.6366 286.381 30.4882 284.562 31.8792C282.742 33.2734 280.188 33.9689 276.898 33.9689Z" fill="#0E333C"/>
<path d="M15.2283 14.323C12.008 14.323 9.39429 16.9336 9.39429 20.1571C9.39429 23.3774 12.0048 25.9911 15.2283 25.9911C18.4487 25.9911 21.0624 23.3806 21.0624 20.1571C21.0624 16.9336 18.4518 14.323 15.2283 14.323ZM16.6543 20.0872C15.6412 20.0872 14.8218 19.2678 14.8218 18.2547C14.8218 17.2416 15.6412 16.4222 16.6543 16.4222C17.6674 16.4222 18.4868 17.2416 18.4868 18.2547C18.4868 19.2678 17.6674 20.0872 16.6543 20.0872Z" fill="#0E333C"/>
<path d="M33.7755 14.323C30.5551 14.323 27.9414 16.9336 27.9414 20.1571C27.9414 23.3774 30.552 25.9911 33.7755 25.9911C36.9958 25.9911 39.6095 23.3806 39.6095 20.1571C39.6063 16.9336 36.9958 14.323 33.7755 14.323ZM31.4285 20.0872C30.4154 20.0872 29.596 19.2678 29.596 18.2547C29.596 17.2416 30.4154 16.4222 31.4285 16.4222C32.4416 16.4222 33.261 17.2416 33.261 18.2547C33.261 19.2678 32.4416 20.0872 31.4285 20.0872Z" fill="#0E333C"/>
<path d="M49.0004 0.0444336C45.1576 5.32907 34.7154 4.98608 34.7154 4.98608L34.7217 4.99242C31.4125 4.79552 28.0492 5.67206 25.2068 7.62204C25.2037 7.62204 25.2036 7.62522 25.2005 7.62522C25.1179 7.68238 25.0322 7.73955 24.9528 7.79989C24.8194 7.89516 24.686 7.99361 24.5558 8.09524C24.5177 8.12065 24.5018 8.13653 24.5018 8.13653C21.5197 5.8245 17.8706 4.77646 14.2819 4.98925L14.285 4.98608C14.285 4.98608 3.8428 5.32907 0 0.0444336C0 0.0444336 0 15.7713 0 20.154C0 24.0476 1.48313 27.9412 4.44621 30.9043C7.41247 33.8674 11.3029 35.3505 15.1965 35.3505C17.2164 35.3505 19.2362 34.9472 21.1227 34.15L24.4986 40L27.8746 34.15C29.7642 34.9472 31.784 35.3505 33.8007 35.3505C37.6943 35.3505 41.5879 33.8674 44.551 30.9043C46.9202 28.5351 48.3462 25.5657 48.8162 22.4819L48.8194 22.4787C48.8225 22.4565 48.8257 22.4311 48.8289 22.4089C48.9401 21.6594 48.9941 20.9067 48.9909 20.1508L48.9941 20.154C49.0004 15.7713 49.0004 0.0444336 49.0004 0.0444336ZM44.8654 19.0679C44.9035 19.4331 44.9194 19.8015 44.9194 20.1699V20.1826C44.9131 23.0218 43.8301 25.8579 41.6673 28.0206C37.3323 32.3557 30.2787 32.3557 25.9436 28.0206C25.1465 27.2235 23.8539 27.2235 23.0568 28.0206C18.7217 32.3557 11.6681 32.3557 7.33308 28.0206C3.34102 24.0286 3.02978 17.7276 6.39302 13.3704L7.89201 11.7792C12.2557 7.97138 18.9059 8.14288 23.0599 12.2969C23.8571 13.0941 25.1497 13.0941 25.9468 12.2969C26.69 11.5538 27.5125 10.9376 28.3891 10.4486C28.3922 10.4454 28.3986 10.4422 28.4017 10.439C28.4208 10.4295 28.4367 10.42 28.4557 10.4104C32.4605 8.21593 37.5387 8.6669 41.102 11.7665L42.636 13.3958C43.9254 15.079 44.6717 17.0512 44.8654 19.0679Z" fill="#0E333C"/>
</svg>
