<svg width="51" height="40" viewBox="0 0 51 40" fill="none" xmlns="http://www.w3.org/2000/svg">
<path d="M15.6111 13.9872C12.3098 13.9872 9.63037 16.5444 9.63037 19.7021C9.63037 22.8567 12.3066 25.4171 15.6111 25.4171C18.9124 25.4171 21.5919 22.8598 21.5919 19.7021C21.5919 16.5444 18.9157 13.9872 15.6111 13.9872ZM17.073 19.6337C16.0344 19.6337 15.1944 18.831 15.1944 17.8386C15.1944 16.8462 16.0344 16.0436 17.073 16.0436C18.1115 16.0436 18.9515 16.8462 18.9515 17.8386C18.9515 18.831 18.1115 19.6337 17.073 19.6337Z" fill="#0E333C"/>
<path d="M34.6248 13.9872C31.3235 13.9872 28.644 16.5444 28.644 19.7021C28.644 22.8567 31.3202 25.4171 34.6248 25.4171C37.9261 25.4171 40.6056 22.8598 40.6056 19.7021C40.6023 16.5444 37.9261 13.9872 34.6248 13.9872ZM32.2188 19.6337C31.1803 19.6337 30.3403 18.831 30.3403 17.8386C30.3403 16.8462 31.1803 16.0436 32.2188 16.0436C33.2574 16.0436 34.0974 16.8462 34.0974 17.8386C34.0974 18.831 33.2574 19.6337 32.2188 19.6337Z" fill="#0E333C"/>
<path d="M50.2326 0C46.2931 5.17675 35.5883 4.84075 35.5883 4.84075L35.5948 4.84697C32.2024 4.65409 28.7546 5.51273 25.8407 7.4229C25.8374 7.4229 25.8374 7.42602 25.8342 7.42602C25.7495 7.48201 25.6616 7.53801 25.5802 7.59712C25.4435 7.69045 25.3067 7.78689 25.1733 7.88644C25.1342 7.91133 25.1179 7.92689 25.1179 7.92689C22.0608 5.66206 18.32 4.63542 14.641 4.84386L14.6442 4.84075C14.6442 4.84075 3.93943 5.17675 0 0C0 0 0 15.4058 0 19.699C0 23.5131 1.52042 27.3272 4.55801 30.2298C7.59886 33.1324 11.5871 34.5853 15.5786 34.5853C17.6493 34.5853 19.7199 34.1902 21.6538 33.4093L25.1147 39.1398L28.5755 33.4093C30.5127 34.1902 32.5833 34.5853 34.6507 34.5853C38.6422 34.5853 42.6337 33.1324 45.6713 30.2298C48.1001 27.909 49.5619 25.0002 50.0437 21.9794L50.047 21.9763C50.0502 21.9545 50.0535 21.9296 50.0568 21.9078C50.1707 21.1736 50.2261 20.4363 50.2228 19.6959L50.2261 19.699C50.2326 15.4058 50.2326 0 50.2326 0ZM45.9936 18.635C46.0327 18.9928 46.049 19.3537 46.049 19.7146V19.727C46.0424 22.5083 44.9323 25.2864 42.7151 27.405C38.271 31.6516 31.0401 31.6516 26.596 27.405C25.7788 26.6242 24.4537 26.6242 23.6365 27.405C19.1925 31.6516 11.9615 31.6516 7.51748 27.405C3.42503 23.4945 3.10596 17.3222 6.55377 13.0539L8.09047 11.4952C12.5638 7.76511 19.3813 7.93311 23.6398 12.0023C24.457 12.7832 25.7821 12.7832 26.5993 12.0023C27.3611 11.2744 28.2043 10.6708 29.1029 10.1917C29.1062 10.1886 29.1127 10.1855 29.1159 10.1824C29.1355 10.173 29.1517 10.1637 29.1713 10.1544C33.2767 8.00466 38.4827 8.44643 42.1356 11.4828L43.7081 13.0788C45.0299 14.7276 45.795 16.6595 45.9936 18.635Z" fill="#0E333C"/>
</svg>
