<svg width="60" height="44" viewBox="0 0 60 44" fill="none" xmlns="http://www.w3.org/2000/svg">
<path d="M2.75054 24.0377C2.36318 23.4215 2.1695 23.1135 2.06108 22.6383C1.97964 22.2814 1.97964 21.7186 2.06108 21.3617C2.1695 20.8865 2.36318 20.5785 2.75054 19.9623C5.95156 14.871 15.4797 2 30 2C44.5203 2 54.0484 14.871 57.2495 19.9623C57.6368 20.5785 57.8305 20.8865 57.9389 21.3617C58.0204 21.7186 58.0204 22.2814 57.9389 22.6383C57.8305 23.1135 57.6368 23.4215 57.2495 24.0377C54.0484 29.129 44.5203 42 30 42C15.4797 42 5.95157 29.129 2.75054 24.0377Z" stroke="#0E333C" stroke-width="4" stroke-linecap="round" stroke-linejoin="round"/>
<path d="M30 30.5714C34.7126 30.5714 38.533 26.7339 38.533 22C38.533 17.2661 34.7126 13.4286 30 13.4286C25.2874 13.4286 21.467 17.2661 21.467 22C21.467 26.7339 25.2874 30.5714 30 30.5714Z" stroke="#0E333C" stroke-width="4" stroke-linecap="round" stroke-linejoin="round"/>
</svg>
