<svg width="44" height="44" viewBox="0 0 44 44" fill="none" xmlns="http://www.w3.org/2000/svg">
<path d="M28.6774 13.7803C27.849 12.9519 27.4348 12.5377 27.2796 12.06C27.1431 11.6399 27.1431 11.1873 27.2796 10.7671C27.4348 10.2895 27.849 9.87528 28.6774 9.04685L34.615 3.10925C33.0394 2.39667 31.2903 2 29.4486 2C22.5166 2 16.8971 7.61947 16.8971 14.5514C16.8971 15.5786 17.0205 16.577 17.2533 17.5326C17.5026 18.5558 17.6272 19.0675 17.6051 19.3907C17.5819 19.7291 17.5315 19.9091 17.3754 20.2103C17.2263 20.4979 16.9408 20.7835 16.3696 21.3547L3.29974 34.4245C1.56675 36.1575 1.56675 38.9673 3.29974 40.7003C5.03273 42.4332 7.84247 42.4332 9.57546 40.7003L22.6453 27.6304C23.2165 27.0592 23.5021 26.7737 23.7897 26.6246C24.0909 26.4685 24.2709 26.4181 24.6093 26.3949C24.9325 26.3728 25.4442 26.4974 26.4674 26.7467C27.423 26.9795 28.4214 27.1029 29.4486 27.1029C36.3805 27.1029 42 21.4834 42 14.5514C42 12.7097 41.6033 10.9606 40.8907 9.38497L34.9531 15.3226C34.1247 16.151 33.7105 16.5652 33.2329 16.7204C32.8127 16.8569 32.3601 16.8569 31.94 16.7204C31.4623 16.5652 31.0481 16.151 30.2197 15.3226L28.6774 13.7803Z" stroke="#0E333C" stroke-width="4" stroke-linecap="round" stroke-linejoin="round"/>
</svg>
